<svg version="1.2" xmlns="http://www.w3.org/2000/svg" viewBox="0 0 241 241" width="241" height="241"><defs><clipPath clipPathUnits="userSpaceOnUse" id="cp1"><path d="m240.47 23.96h-240.48v192.96h240.48z"/></clipPath></defs><style>.a{fill:#fff}.b{fill:#202020}.c{fill:#ff5a16}</style><g clip-path="url(#cp1)"><path class="a" d="m96.1 216.9c-35 0-63.4-15.6-80.1-44.1-14.8-24.9-16-51.9-16-82 0-17.9 5.4-33.5 15.5-45.1 9.4-10.6 22.6-17.5 37.3-19.3 17.5-2.3 39.2-2.4 61.7-2.4 36.8 0 47.1 0.4 61.6 1.9 19.2 1.9 35.4 9 46.7 20.7 11.6 11.8 17.7 27.7 17.7 45.8v3.6c0 30.9-20.7 56.7-49.5 63.8q-3.2 7.6-7.9 15l-0.1 0.2c-10.1 15.6-34 41.9-79.6 41.9h-7.3z"/><path class="a" d="m174.6 41c-13.7-1.4-23.2-1.8-60-1.8-23.7 0-43.7 0.2-59.8 2.2-21.4 2.8-39.6 19.1-39.6 49.4 0 30.2 1.6 53.6 13.9 74.3 13.8 23.7 37 36.6 67 36.6h7.3c36.8 0 56.9-19.5 66.9-35q6.4-10.2 9.5-20.5c26.1-2.2 45.5-23.8 45.5-50.2v-3.6c0-28.5-18.7-48.2-50.7-51.4z"/><path class="b" d="m15.2 90.8c0-30.3 18.2-46.6 39.6-49.4 16.1-2 36.1-2.2 59.7-2.2 36.9 0 46.4 0.4 60.1 1.8 32 3.2 50.7 22.9 50.7 51.4v3.6c0 26.4-19.4 48-45.5 50.2q-3.1 10.3-9.6 20.5c-10 15.5-30 35-66.8 35h-7.3c-30 0-53.2-12.9-67-36.6-12.3-20.7-13.9-43.6-13.9-74.3z"/><path class="a" d="m32.2 91c0 29.3 1.9 48.2 11.4 65.7 10.9 20.2 30.7 28 53.2 28h7.1c29.5 0 43.8-14.4 51.8-26.9 3.9-6.3 7.3-13.4 9.1-22.3l1.3-5.6h8.2c18.2 0 33.9-14.8 33.9-33.7v-3.4c0-21.1-13.2-32.3-36.1-35-13-1.1-20.7-1.6-57.6-1.6-24.7 0-42.5 0.2-55.9 2.3-18.9 2.7-26.4 13.4-26.4 32.5z"/><path class="b" d="m166.2 106.7c0 2.7 2 4.8 5.6 4.8 11.6 0 18-6.6 18-17.5 0-11-6.4-17.8-18-17.8-3.6 0-5.6 2.1-5.6 4.8v25.7z"/><path class="c" d="m54.5 105.3c0 13.4 7.5 25 17.1 34.1 6.3 6.2 16.4 12.5 23.2 16.6 2 1.2 4.1 1.8 6.3 1.8 2.8 0 5-0.6 6.9-1.8 6.8-4.1 16.8-10.4 22.9-16.6 9.8-9.1 17.3-20.7 17.3-34.1 0-14.5-10.9-27.5-26.6-27.5-9.3 0-15.7 4.8-20.5 11.4-4.3-6.6-10.9-11.4-20.2-11.4-15.9 0-26.4 13-26.4 27.5z"/></g></svg>